<mxfile host="65bd71144e">
    <diagram id="aBlWVt4I5UjPpBRLtE5I" name="language-server-itself">
        <mxGraphModel dx="1062" dy="904" grid="1" gridSize="10" guides="1" tooltips="1" connect="1" arrows="1" fold="1" page="1" pageScale="1" pageWidth="850" pageHeight="1100" math="0" shadow="0">
            <root>
                <mxCell id="0"/>
                <mxCell id="1" parent="0"/>
                <mxCell id="UqQbGU07bLzt39uGRek0-37" style="edgeStyle=orthogonalEdgeStyle;html=1;exitX=0;exitY=0.5;exitDx=0;exitDy=0;" parent="1" source="UqQbGU07bLzt39uGRek0-38" target="UqQbGU07bLzt39uGRek0-68" edge="1">
                    <mxGeometry relative="1" as="geometry">
                        <Array as="points">
                            <mxPoint x="160" y="345"/>
                            <mxPoint x="160" y="745"/>
                        </Array>
                    </mxGeometry>
                </mxCell>
                <mxCell id="UqQbGU07bLzt39uGRek0-38" value="SemanticTokensHandlerBase" style="swimlane;fontStyle=1;align=center;verticalAlign=top;childLayout=stackLayout;horizontal=1;startSize=26;horizontalStack=0;resizeParent=1;resizeParentMax=0;resizeLast=0;collapsible=1;marginBottom=0;" parent="1" vertex="1" collapsed="1">
                    <mxGeometry x="392.5" y="330" width="210" height="30" as="geometry">
                        <mxRectangle x="280" y="310" width="200" height="86" as="alternateBounds"/>
                    </mxGeometry>
                </mxCell>
                <mxCell id="UqQbGU07bLzt39uGRek0-39" value="+ field: type" style="text;strokeColor=none;fillColor=none;align=left;verticalAlign=top;spacingLeft=4;spacingRight=4;overflow=hidden;rotatable=0;points=[[0,0.5],[1,0.5]];portConstraint=eastwest;" parent="UqQbGU07bLzt39uGRek0-38" vertex="1">
                    <mxGeometry y="26" width="200" height="26" as="geometry"/>
                </mxCell>
                <mxCell id="UqQbGU07bLzt39uGRek0-40" value="" style="line;strokeWidth=1;fillColor=none;align=left;verticalAlign=middle;spacingTop=-1;spacingLeft=3;spacingRight=3;rotatable=0;labelPosition=right;points=[];portConstraint=eastwest;strokeColor=inherit;" parent="UqQbGU07bLzt39uGRek0-38" vertex="1">
                    <mxGeometry y="52" width="200" height="8" as="geometry"/>
                </mxCell>
                <mxCell id="UqQbGU07bLzt39uGRek0-41" value="+ method(type): type" style="text;strokeColor=none;fillColor=none;align=left;verticalAlign=top;spacingLeft=4;spacingRight=4;overflow=hidden;rotatable=0;points=[[0,0.5],[1,0.5]];portConstraint=eastwest;" parent="UqQbGU07bLzt39uGRek0-38" vertex="1">
                    <mxGeometry y="60" width="200" height="26" as="geometry"/>
                </mxCell>
                <mxCell id="UqQbGU07bLzt39uGRek0-42" style="edgeStyle=orthogonalEdgeStyle;html=1;exitX=0.25;exitY=0;exitDx=0;exitDy=0;" parent="1" source="UqQbGU07bLzt39uGRek0-43" target="UqQbGU07bLzt39uGRek0-68" edge="1">
                    <mxGeometry relative="1" as="geometry">
                        <Array as="points">
                            <mxPoint x="346" y="400"/>
                            <mxPoint x="170" y="400"/>
                            <mxPoint x="170" y="745"/>
                        </Array>
                    </mxGeometry>
                </mxCell>
                <mxCell id="UqQbGU07bLzt39uGRek0-43" value="SemanticTokensHandler" style="swimlane;fontStyle=1;align=center;verticalAlign=top;childLayout=stackLayout;horizontal=1;startSize=26;horizontalStack=0;resizeParent=1;resizeParentMax=0;resizeLast=0;collapsible=1;marginBottom=0;" parent="1" vertex="1">
                    <mxGeometry x="195" y="410" width="605" height="164" as="geometry">
                        <mxRectangle x="190" y="410" width="210" height="30" as="alternateBounds"/>
                    </mxGeometry>
                </mxCell>
                <mxCell id="UqQbGU07bLzt39uGRek0-44" value="+ logger: ILogger" style="text;strokeColor=none;fillColor=none;align=left;verticalAlign=top;spacingLeft=4;spacingRight=4;overflow=hidden;rotatable=0;points=[[0,0.5],[1,0.5]];portConstraint=eastwest;" parent="UqQbGU07bLzt39uGRek0-43" vertex="1">
                    <mxGeometry y="26" width="605" height="26" as="geometry"/>
                </mxCell>
                <mxCell id="UqQbGU07bLzt39uGRek0-45" value="+ capabilities: SemanticTokenCapabilities" style="text;strokeColor=none;fillColor=none;align=left;verticalAlign=top;spacingLeft=4;spacingRight=4;overflow=hidden;rotatable=0;points=[[0,0.5],[1,0.5]];portConstraint=eastwest;" parent="UqQbGU07bLzt39uGRek0-43" vertex="1">
                    <mxGeometry y="52" width="605" height="26" as="geometry"/>
                </mxCell>
                <mxCell id="UqQbGU07bLzt39uGRek0-46" value="" style="line;strokeWidth=1;fillColor=none;align=left;verticalAlign=middle;spacingTop=-1;spacingLeft=3;spacingRight=3;rotatable=0;labelPosition=right;points=[];portConstraint=eastwest;strokeColor=inherit;" parent="UqQbGU07bLzt39uGRek0-43" vertex="1">
                    <mxGeometry y="78" width="605" height="8" as="geometry"/>
                </mxCell>
                <mxCell id="UqQbGU07bLzt39uGRek0-47" value="+ CreateRegistrationOptions(): SemanticTokensRegistrationOptions" style="text;strokeColor=none;fillColor=none;align=left;verticalAlign=top;spacingLeft=4;spacingRight=4;overflow=hidden;rotatable=0;points=[[0,0.5],[1,0.5]];portConstraint=eastwest;" parent="UqQbGU07bLzt39uGRek0-43" vertex="1">
                    <mxGeometry y="86" width="605" height="26" as="geometry"/>
                </mxCell>
                <mxCell id="UqQbGU07bLzt39uGRek0-48" value="+ GetSemanticTokensDocument(): Task&lt;SemanticTokensDocument&gt;" style="text;strokeColor=none;fillColor=none;align=left;verticalAlign=top;spacingLeft=4;spacingRight=4;overflow=hidden;rotatable=0;points=[[0,0.5],[1,0.5]];portConstraint=eastwest;" parent="UqQbGU07bLzt39uGRek0-43" vertex="1">
                    <mxGeometry y="112" width="605" height="26" as="geometry"/>
                </mxCell>
                <mxCell id="UqQbGU07bLzt39uGRek0-49" value="+ Tokenize(SemanticTokensBuilder, ITextDocumentIdentifierParams, CancellationToken): Task" style="text;strokeColor=none;fillColor=none;align=left;verticalAlign=top;spacingLeft=4;spacingRight=4;overflow=hidden;rotatable=0;points=[[0,0.5],[1,0.5]];portConstraint=eastwest;" parent="UqQbGU07bLzt39uGRek0-43" vertex="1">
                    <mxGeometry y="138" width="605" height="26" as="geometry"/>
                </mxCell>
                <mxCell id="UqQbGU07bLzt39uGRek0-50" value="" style="endArrow=block;dashed=1;endFill=0;endSize=12;html=1;" parent="1" source="UqQbGU07bLzt39uGRek0-43" target="UqQbGU07bLzt39uGRek0-38" edge="1">
                    <mxGeometry width="160" relative="1" as="geometry">
                        <mxPoint x="210" y="550" as="sourcePoint"/>
                        <mxPoint x="370" y="550" as="targetPoint"/>
                    </mxGeometry>
                </mxCell>
                <mxCell id="UqQbGU07bLzt39uGRek0-51" style="edgeStyle=orthogonalEdgeStyle;html=1;exitX=0.5;exitY=0;exitDx=0;exitDy=0;" parent="1" source="UqQbGU07bLzt39uGRek0-53" target="UqQbGU07bLzt39uGRek0-43" edge="1">
                    <mxGeometry relative="1" as="geometry">
                        <Array as="points">
                            <mxPoint x="300" y="610"/>
                            <mxPoint x="498" y="610"/>
                        </Array>
                    </mxGeometry>
                </mxCell>
                <mxCell id="UqQbGU07bLzt39uGRek0-52" style="edgeStyle=orthogonalEdgeStyle;html=1;exitX=0.5;exitY=1;exitDx=0;exitDy=0;" parent="1" source="UqQbGU07bLzt39uGRek0-53" target="UqQbGU07bLzt39uGRek0-68" edge="1">
                    <mxGeometry relative="1" as="geometry"/>
                </mxCell>
                <mxCell id="UqQbGU07bLzt39uGRek0-53" value="Server.Main" style="swimlane;fontStyle=1;align=center;verticalAlign=top;childLayout=stackLayout;horizontal=1;startSize=26;horizontalStack=0;resizeParent=1;resizeParentMax=0;resizeLast=0;collapsible=1;marginBottom=0;" parent="1" vertex="1" collapsed="1">
                    <mxGeometry x="195" y="630" width="210" height="30" as="geometry">
                        <mxRectangle x="280" y="310" width="200" height="86" as="alternateBounds"/>
                    </mxGeometry>
                </mxCell>
                <mxCell id="UqQbGU07bLzt39uGRek0-54" value="+ field: type" style="text;strokeColor=none;fillColor=none;align=left;verticalAlign=top;spacingLeft=4;spacingRight=4;overflow=hidden;rotatable=0;points=[[0,0.5],[1,0.5]];portConstraint=eastwest;" parent="UqQbGU07bLzt39uGRek0-53" vertex="1">
                    <mxGeometry y="26" width="200" height="26" as="geometry"/>
                </mxCell>
                <mxCell id="UqQbGU07bLzt39uGRek0-55" value="" style="line;strokeWidth=1;fillColor=none;align=left;verticalAlign=middle;spacingTop=-1;spacingLeft=3;spacingRight=3;rotatable=0;labelPosition=right;points=[];portConstraint=eastwest;strokeColor=inherit;" parent="UqQbGU07bLzt39uGRek0-53" vertex="1">
                    <mxGeometry y="52" width="200" height="8" as="geometry"/>
                </mxCell>
                <mxCell id="UqQbGU07bLzt39uGRek0-56" value="+ method(type): type" style="text;strokeColor=none;fillColor=none;align=left;verticalAlign=top;spacingLeft=4;spacingRight=4;overflow=hidden;rotatable=0;points=[[0,0.5],[1,0.5]];portConstraint=eastwest;" parent="UqQbGU07bLzt39uGRek0-53" vertex="1">
                    <mxGeometry y="60" width="200" height="26" as="geometry"/>
                </mxCell>
                <mxCell id="UqQbGU07bLzt39uGRek0-57" value="ILogger" style="swimlane;fontStyle=1;align=center;verticalAlign=top;childLayout=stackLayout;horizontal=1;startSize=26;horizontalStack=0;resizeParent=1;resizeParentMax=0;resizeLast=0;collapsible=1;marginBottom=0;" parent="1" vertex="1" collapsed="1">
                    <mxGeometry x="460" y="630" width="210" height="30" as="geometry">
                        <mxRectangle x="280" y="310" width="200" height="86" as="alternateBounds"/>
                    </mxGeometry>
                </mxCell>
                <mxCell id="UqQbGU07bLzt39uGRek0-58" value="+ field: type" style="text;strokeColor=none;fillColor=none;align=left;verticalAlign=top;spacingLeft=4;spacingRight=4;overflow=hidden;rotatable=0;points=[[0,0.5],[1,0.5]];portConstraint=eastwest;" parent="UqQbGU07bLzt39uGRek0-57" vertex="1">
                    <mxGeometry y="26" width="200" height="26" as="geometry"/>
                </mxCell>
                <mxCell id="UqQbGU07bLzt39uGRek0-59" value="" style="line;strokeWidth=1;fillColor=none;align=left;verticalAlign=middle;spacingTop=-1;spacingLeft=3;spacingRight=3;rotatable=0;labelPosition=right;points=[];portConstraint=eastwest;strokeColor=inherit;" parent="UqQbGU07bLzt39uGRek0-57" vertex="1">
                    <mxGeometry y="52" width="200" height="8" as="geometry"/>
                </mxCell>
                <mxCell id="UqQbGU07bLzt39uGRek0-60" value="+ method(type): type" style="text;strokeColor=none;fillColor=none;align=left;verticalAlign=top;spacingLeft=4;spacingRight=4;overflow=hidden;rotatable=0;points=[[0,0.5],[1,0.5]];portConstraint=eastwest;" parent="UqQbGU07bLzt39uGRek0-57" vertex="1">
                    <mxGeometry y="60" width="200" height="26" as="geometry"/>
                </mxCell>
                <mxCell id="UqQbGU07bLzt39uGRek0-61" value="use" style="edgeStyle=orthogonalEdgeStyle;html=1;exitX=1;exitY=0.5;exitDx=0;exitDy=0;" parent="1" source="UqQbGU07bLzt39uGRek0-44" target="UqQbGU07bLzt39uGRek0-57" edge="1">
                    <mxGeometry relative="1" as="geometry">
                        <Array as="points">
                            <mxPoint x="810" y="449"/>
                            <mxPoint x="810" y="610"/>
                            <mxPoint x="565" y="610"/>
                        </Array>
                    </mxGeometry>
                </mxCell>
                <mxCell id="UqQbGU07bLzt39uGRek0-62" value="Serilig.Log.Logger" style="swimlane;fontStyle=1;align=center;verticalAlign=top;childLayout=stackLayout;horizontal=1;startSize=26;horizontalStack=0;resizeParent=1;resizeParentMax=0;resizeLast=0;collapsible=1;marginBottom=0;" parent="1" vertex="1" collapsed="1">
                    <mxGeometry x="460" y="700" width="210" height="30" as="geometry">
                        <mxRectangle x="280" y="310" width="200" height="86" as="alternateBounds"/>
                    </mxGeometry>
                </mxCell>
                <mxCell id="UqQbGU07bLzt39uGRek0-63" value="+ field: type" style="text;strokeColor=none;fillColor=none;align=left;verticalAlign=top;spacingLeft=4;spacingRight=4;overflow=hidden;rotatable=0;points=[[0,0.5],[1,0.5]];portConstraint=eastwest;" parent="UqQbGU07bLzt39uGRek0-62" vertex="1">
                    <mxGeometry y="26" width="200" height="26" as="geometry"/>
                </mxCell>
                <mxCell id="UqQbGU07bLzt39uGRek0-64" value="" style="line;strokeWidth=1;fillColor=none;align=left;verticalAlign=middle;spacingTop=-1;spacingLeft=3;spacingRight=3;rotatable=0;labelPosition=right;points=[];portConstraint=eastwest;strokeColor=inherit;" parent="UqQbGU07bLzt39uGRek0-62" vertex="1">
                    <mxGeometry y="52" width="200" height="8" as="geometry"/>
                </mxCell>
                <mxCell id="UqQbGU07bLzt39uGRek0-65" value="+ method(type): type" style="text;strokeColor=none;fillColor=none;align=left;verticalAlign=top;spacingLeft=4;spacingRight=4;overflow=hidden;rotatable=0;points=[[0,0.5],[1,0.5]];portConstraint=eastwest;" parent="UqQbGU07bLzt39uGRek0-62" vertex="1">
                    <mxGeometry y="60" width="200" height="26" as="geometry"/>
                </mxCell>
                <mxCell id="UqQbGU07bLzt39uGRek0-66" value="" style="endArrow=block;dashed=1;endFill=0;endSize=12;html=1;" parent="1" source="UqQbGU07bLzt39uGRek0-62" target="UqQbGU07bLzt39uGRek0-57" edge="1">
                    <mxGeometry width="160" relative="1" as="geometry">
                        <mxPoint x="507.5" y="420" as="sourcePoint"/>
                        <mxPoint x="507.5" y="370" as="targetPoint"/>
                    </mxGeometry>
                </mxCell>
                <mxCell id="UqQbGU07bLzt39uGRek0-67" style="edgeStyle=orthogonalEdgeStyle;html=1;exitX=1;exitY=0.5;exitDx=0;exitDy=0;" parent="1" source="UqQbGU07bLzt39uGRek0-68" target="UqQbGU07bLzt39uGRek0-62" edge="1">
                    <mxGeometry relative="1" as="geometry"/>
                </mxCell>
                <mxCell id="UqQbGU07bLzt39uGRek0-68" value="Omnisharp.DependencyInjection" style="swimlane;fontStyle=1;align=center;verticalAlign=top;childLayout=stackLayout;horizontal=1;startSize=26;horizontalStack=0;resizeParent=1;resizeParentMax=0;resizeLast=0;collapsible=1;marginBottom=0;" parent="1" vertex="1" collapsed="1">
                    <mxGeometry x="195" y="730" width="210" height="30" as="geometry">
                        <mxRectangle x="280" y="310" width="200" height="86" as="alternateBounds"/>
                    </mxGeometry>
                </mxCell>
                <mxCell id="UqQbGU07bLzt39uGRek0-69" value="+ field: type" style="text;strokeColor=none;fillColor=none;align=left;verticalAlign=top;spacingLeft=4;spacingRight=4;overflow=hidden;rotatable=0;points=[[0,0.5],[1,0.5]];portConstraint=eastwest;" parent="UqQbGU07bLzt39uGRek0-68" vertex="1">
                    <mxGeometry y="26" width="200" height="26" as="geometry"/>
                </mxCell>
                <mxCell id="UqQbGU07bLzt39uGRek0-70" value="" style="line;strokeWidth=1;fillColor=none;align=left;verticalAlign=middle;spacingTop=-1;spacingLeft=3;spacingRight=3;rotatable=0;labelPosition=right;points=[];portConstraint=eastwest;strokeColor=inherit;" parent="UqQbGU07bLzt39uGRek0-68" vertex="1">
                    <mxGeometry y="52" width="200" height="8" as="geometry"/>
                </mxCell>
                <mxCell id="UqQbGU07bLzt39uGRek0-71" value="+ method(type): type" style="text;strokeColor=none;fillColor=none;align=left;verticalAlign=top;spacingLeft=4;spacingRight=4;overflow=hidden;rotatable=0;points=[[0,0.5],[1,0.5]];portConstraint=eastwest;" parent="UqQbGU07bLzt39uGRek0-68" vertex="1">
                    <mxGeometry y="60" width="200" height="26" as="geometry"/>
                </mxCell>
            </root>
        </mxGraphModel>
    </diagram>
</mxfile>